<?xml version="1.0" encoding="utf-8"?>
<!-- Generator: Adobe Illustrator 26.2.1, SVG Export Plug-In . SVG Version: 6.00 Build 0)  -->
<svg version="1.1" id="e6d22f3d-3fff-42f3-80b4-1e1cd3ab2308"
	 xmlns="http://www.w3.org/2000/svg" xmlns:xlink="http://www.w3.org/1999/xlink" x="0px" y="0px" viewBox="0 0 50 50"
	 style="enable-background:new 0 0 50 50;" xml:space="preserve">
<style type="text/css">
	.st0{fill:#9A031E;}
</style>
<rect x="14.2" y="11.8" class="st0" width="24.8" height="26.5"/>
<path d="M25,1C11.7,1,1,11.8,1.1,25c0,13.3,10.8,24,24,23.9C38.3,49,49,38.2,49,25C49,11.7,38.3,1,25,1z M36.5,25.6L18.9,36.3
	c-0.3,0.2-0.8,0.1-1-0.2c-0.1-0.1-0.1-0.2-0.1-0.4V14.3c0-0.4,0.3-0.7,0.7-0.8c0.2,0,0.3,0,0.4,0.1l17.5,10.7
	c0.3,0.2,0.4,0.6,0.2,0.9C36.7,25.4,36.6,25.5,36.5,25.6z"/>
</svg>
