<svg width="3" height="3" viewBox="0 0 3 3" fill="none" xmlns="http://www.w3.org/2000/svg">
<path id="Vector" d="M1.37648 2.99631C1.37771 2.99385 1.37771 2.99139 1.37894 2.98893C1.38755 2.99016 1.39615 2.99139 1.40475 2.99262C1.40475 2.99385 1.40475 2.99631 1.40475 2.99754C1.43548 3 1.46743 3 1.49939 3C1.84965 3 2.17042 2.88069 2.42605 2.67897C2.41745 2.65191 2.41008 2.62608 2.40147 2.59656C2.44941 2.58303 2.48382 2.57319 2.52315 2.56212C2.51331 2.49693 2.35723 2.42312 2.53544 2.34932C2.60426 2.42189 2.56739 2.4957 2.55264 2.56704C2.69398 2.42681 2.80828 2.25953 2.8857 2.07257C2.86973 2.05166 2.85744 2.02214 2.85744 2C2.85744 1.97909 2.90168 1.94957 2.93363 1.9385C2.94469 1.90406 2.9533 1.86962 2.9619 1.83395C2.95821 1.81919 2.95453 1.80443 2.95084 1.78967C2.95821 1.78475 2.96436 1.77983 2.97173 1.77491C2.97296 1.77491 2.97296 1.77614 2.97419 1.77614C2.9914 1.68635 3 1.5941 3 1.50062C3 1.48462 3 1.4674 2.99877 1.45141C2.95698 1.49692 2.92134 1.47724 2.86112 1.38376C2.90045 1.36408 2.93732 1.34563 2.97419 1.32718C2.97911 1.32595 2.98402 1.32472 2.98894 1.32349C2.98156 1.25707 2.96927 1.19188 2.9533 1.12915C2.93732 1.12669 2.92011 1.11931 2.90291 1.11316C2.90414 1.11808 2.90414 1.12177 2.90291 1.11316C2.90291 1.11439 2.90291 1.11562 2.90291 1.11685C2.90291 1.11808 2.90291 1.11808 2.90291 1.11808V1.11685C2.90291 1.11562 2.90291 1.11439 2.90291 1.11316C2.90782 1.08487 2.91151 1.05781 2.91889 1.01353C2.8685 0.868389 2.79721 0.733087 2.7075 0.611316C2.70995 0.623616 2.71241 0.635916 2.71487 0.649446C2.70381 0.651907 2.69275 0.654367 2.68169 0.656827C2.67677 0.634686 2.67186 0.613776 2.66694 0.591636C2.67431 0.590406 2.68046 0.589176 2.68783 0.586716C2.64728 0.533825 2.60303 0.483395 2.5551 0.436654C2.5465 0.441574 2.53789 0.445264 2.52929 0.450184C2.52069 0.430504 2.51331 0.409594 2.50471 0.389914C2.23925 0.146371 1.88652 0 1.49939 0C1.25236 0 1.02007 0.0590406 0.81483 0.164822C0.823433 0.166052 0.832036 0.167282 0.840639 0.169742C0.836952 0.195572 0.833265 0.222632 0.829578 0.248462C0.816059 0.246002 0.80254 0.242312 0.789021 0.239852C0.793937 0.216482 0.800082 0.193112 0.804998 0.170972C0.497747 0.332103 0.251946 0.596556 0.116755 0.918819C0.141336 0.9508 0.164687 0.98401 0.195412 1.02583C0.194183 1.0369 0.196641 1.05412 0.189267 1.0615C0.162229 1.09348 0.13519 1.12792 0.100778 1.14883C0.0934043 1.15375 0.0639082 1.13899 0.0479312 1.12423C0.0159771 1.24477 0 1.37023 0 1.50062C0 2.28782 0.605899 2.93358 1.37648 2.99631ZM2.73331 2.31488C2.72962 2.31242 2.72593 2.30996 2.72102 2.30873C2.72347 2.3075 2.72593 2.30504 2.72716 2.30381C2.72962 2.30504 2.73331 2.30627 2.73453 2.3075C2.73576 2.30873 2.73453 2.31242 2.73331 2.31488ZM2.78984 1.98524C2.77878 1.98032 2.76772 1.97417 2.75666 1.96925C2.76034 1.9631 2.76403 1.95695 2.76895 1.9508C2.77878 1.95449 2.78984 1.95818 2.79721 1.96433C2.79967 1.96433 2.7923 1.97663 2.78984 1.98524ZM2.94592 1.70111C2.89676 1.76507 2.84883 1.8278 2.78492 1.91267C2.77263 1.91267 2.73945 1.91267 2.70995 1.91267C2.6866 1.82534 2.71733 1.75154 2.80828 1.70111C2.84637 1.6802 2.90168 1.62977 2.94592 1.70111ZM2.74191 1.42558C2.74191 1.42312 2.75297 1.41697 2.75543 1.4182C2.76157 1.42066 2.76649 1.42804 2.77632 1.43665C2.76403 1.44157 2.75543 1.44772 2.74928 1.44526C2.7456 1.44403 2.74314 1.43296 2.74191 1.42558ZM2.92011 1.18696C2.93363 1.18942 2.94224 1.21525 2.9533 1.23124C2.94715 1.23862 2.94101 1.246 2.93486 1.25338C2.9152 1.24723 2.89553 1.23985 2.85498 1.22755C2.88939 1.20541 2.9066 1.1845 2.92011 1.18696ZM2.81934 1.32841C2.82057 1.32964 2.82057 1.3321 2.82057 1.33333C2.82057 1.33456 2.82057 1.33456 2.82057 1.33333C2.82057 1.3321 2.82057 1.32964 2.81934 1.32841C2.82057 1.33702 2.82057 1.3321 2.81934 1.32841ZM2.77755 0.891759C2.78861 0.894219 2.8009 0.897909 2.81196 0.900369C2.81073 0.905289 2.81073 0.911439 2.8095 0.916359C2.79721 0.915129 2.78492 0.915129 2.77263 0.913899C2.77509 0.906519 2.77632 0.899139 2.77755 0.891759ZM2.70627 0.741697L2.71241 0.745387L2.70504 0.747847L2.70627 0.741697ZM2.69766 0.99016C2.70258 0.99016 2.70627 0.99016 2.71118 0.99016C2.71118 1 2.71118 1.01107 2.71118 1.02091C2.70627 1.02091 2.70135 1.02091 2.69644 1.02091C2.69644 1.01107 2.69644 1.00123 2.69766 0.99016ZM2.77386 1.12423C2.81934 1.20664 2.76403 1.22017 2.7075 1.23985C2.69644 1.20049 2.6866 1.16605 2.67431 1.11931C2.70873 1.12054 2.74191 1.12177 2.77386 1.12423ZM1.45637 2.51907C1.45391 2.51415 1.45268 2.50923 1.45023 2.50431C1.45514 2.50308 1.46129 2.49816 1.46497 2.49939C1.46866 2.50062 1.46866 2.508 1.47112 2.51292C1.4662 2.51538 1.46129 2.51661 1.45637 2.51907ZM1.53011 2.01107C1.52274 2.01353 1.51536 2.01599 1.50922 2.01845C1.49324 1.99139 1.47726 1.96433 1.45514 1.92497C1.49078 1.92251 1.50922 1.92128 1.53011 1.91882C1.53011 1.95449 1.53011 1.98278 1.53011 2.01107ZM1.51045 0.846249C1.52151 0.841329 1.53257 0.836408 1.54363 0.831488C1.55469 0.853629 1.56575 0.874539 1.57681 0.896679C1.56329 0.902829 1.54977 0.908979 1.53503 0.913899C1.52642 0.891759 1.51782 0.868389 1.51045 0.846249ZM1.58664 1.88684C1.57558 1.88315 1.56329 1.88069 1.55223 1.877C1.55961 1.84871 1.56821 1.82042 1.57558 1.79213C1.58787 1.79582 1.60139 1.79951 1.61368 1.8032C1.60508 1.83149 1.59525 1.85978 1.58664 1.88684ZM1.6481 2.18696C1.63335 2.16482 1.62474 2.15129 1.61614 2.13899C1.62106 2.13407 1.62597 2.12792 1.63089 2.123C1.64195 2.12915 1.6567 2.13284 1.66161 2.14268C1.6653 2.14883 1.65547 2.16359 1.6481 2.18696ZM1.66653 2.22509C1.66899 2.22755 1.67145 2.23001 1.67145 2.23124C1.67145 2.2337 1.66776 2.23493 1.6653 2.23739C1.66284 2.23493 1.66039 2.23247 1.66039 2.23124C1.66039 2.22878 1.66407 2.22755 1.66653 2.22509ZM1.65547 2.47232C1.65055 2.4674 1.64687 2.46248 1.64195 2.45756C1.64932 2.44526 1.65547 2.43296 1.66653 2.41328C1.67759 2.42681 1.68497 2.43542 1.69111 2.4428C1.67882 2.45387 1.66776 2.46371 1.65547 2.47232ZM1.69111 2.04797C1.68005 2.02952 1.67022 2.0123 1.65301 1.98401C1.68005 1.98155 1.70586 1.9754 1.70709 1.97909C1.71569 1.99877 1.71815 2.01968 1.72184 2.04059C1.712 2.04305 1.70094 2.04551 1.69111 2.04797ZM1.82138 2.66052C1.80664 2.66175 1.79189 2.66298 1.77837 2.66298C1.77591 2.63715 1.77345 2.61132 1.771 2.58549C1.7882 2.58426 1.80541 2.58303 1.82261 2.5818C1.82138 2.60763 1.82138 2.63346 1.82138 2.66052ZM1.60016 1.75277C1.58419 1.70234 1.56698 1.64576 1.54732 1.58549C1.60385 1.56089 1.64318 1.54244 1.67145 1.53014C1.73413 1.55228 1.78451 1.5695 1.83613 1.58672C1.81647 1.6679 1.70586 1.75523 1.60016 1.75277ZM1.58542 1.45879C1.59279 1.45756 1.60139 1.45633 1.60877 1.4551C1.61 1.46002 1.61 1.46494 1.61122 1.46986C1.60385 1.47109 1.59648 1.47355 1.59033 1.47355C1.5891 1.47355 1.58787 1.46371 1.58542 1.45879ZM1.6186 1.26814C1.61983 1.25215 1.62106 1.23616 1.62229 1.22017C1.62843 1.22017 1.63581 1.22017 1.64195 1.22017C1.64195 1.23616 1.64195 1.25338 1.64195 1.26937C1.63458 1.26814 1.6272 1.26814 1.6186 1.26814ZM1.80295 1.10824C1.80418 1.1107 1.79189 1.11808 1.78451 1.12423C1.77837 1.11562 1.77222 1.10701 1.76608 1.0984C1.77222 1.09348 1.77837 1.08979 1.78329 1.08487C1.79066 1.09225 1.79926 1.09963 1.80295 1.10824ZM1.79189 0.96064C1.79312 0.95203 1.79435 0.943419 1.79558 0.934809C1.81278 0.934809 1.82876 0.934809 1.84842 0.934809C1.84719 0.94957 1.84596 0.95818 1.84474 0.96802C1.82753 0.96679 1.80909 0.96433 1.79189 0.96064ZM1.771 1.32226C1.76731 1.32349 1.76485 1.32349 1.76116 1.32472C1.75993 1.31734 1.75871 1.31119 1.75625 1.30381C1.75871 1.30258 1.76239 1.30258 1.76485 1.30135C1.76731 1.30873 1.76977 1.31488 1.771 1.32226ZM1.85825 2.246L1.8558 2.23985H1.86071L1.85825 2.246ZM1.9025 2.67159C1.89635 2.67159 1.89144 2.67159 1.88529 2.67036C1.88406 2.6556 1.88406 2.64084 1.88283 2.62608C1.89144 2.62731 1.90004 2.62854 1.90987 2.62977C1.90741 2.6433 1.90496 2.65683 1.9025 2.67159ZM1.9197 2.14883C1.90004 2.15252 1.87915 2.15498 1.85457 2.1599C1.85457 2.12177 1.85457 2.08856 1.85457 2.05289C1.92831 2.05412 1.92954 2.09594 1.9197 2.14883ZM2.00942 1.9016C2.02294 1.90037 2.03523 1.89914 2.04875 1.89791C2.04998 1.90406 2.05121 1.91021 2.05367 1.91636C2.04015 1.92005 2.02663 1.92374 2.01311 1.92743C2.01188 1.91759 2.01065 1.90898 2.00942 1.9016ZM2.06964 2.04551C2.05981 2.04551 2.04875 2.04674 2.03892 2.04674C2.03646 2.0246 2.03523 2.00369 2.03277 1.98155C2.04629 1.98155 2.05981 1.98155 2.0721 1.98032C2.0721 2.00246 2.07087 2.0246 2.06964 2.04551ZM2.29332 1.82042C2.26628 1.75892 2.26628 1.75892 2.3474 1.75523C2.32528 1.78229 2.31176 1.79951 2.29332 1.82042ZM2.36092 1.08241C2.34125 1.07503 2.32282 1.06642 2.30315 1.05904C2.30807 1.04674 2.31299 1.03444 2.3179 1.02214C2.33634 1.03198 2.356 1.04182 2.37444 1.05166C2.37075 1.0615 2.36583 1.07257 2.36092 1.08241ZM2.33757 1.48339C2.33265 1.48462 2.32773 1.48585 2.32282 1.48708C2.31913 1.47724 2.31667 1.4674 2.31299 1.45879C2.32036 1.45756 2.32773 1.45756 2.33511 1.45633C2.33634 1.46494 2.33634 1.47355 2.33757 1.48339ZM2.38918 1.62731C2.39287 1.6187 2.39656 1.61009 2.40025 1.60148C2.42237 1.60886 2.44326 1.61501 2.46538 1.62239C2.46047 1.63469 2.45555 1.64699 2.45186 1.65929C2.43097 1.64822 2.41008 1.63715 2.38918 1.62731ZM2.43834 1.43173C2.47399 1.42558 2.49734 1.42066 2.53298 1.41451C2.49611 1.48339 2.49611 1.48339 2.43834 1.43173ZM2.65096 0.98647C2.63867 0.99631 2.64482 0.99139 2.65096 0.98647C2.64973 0.98647 2.64728 0.98524 2.64605 0.98524C2.64482 0.98524 2.64482 0.98524 2.64359 0.98524C2.64236 0.98524 2.64236 0.98524 2.64359 0.98524C2.64359 0.98524 2.64482 0.98524 2.64605 0.98524C2.64728 0.98647 2.64973 0.98647 2.65096 0.98647ZM2.64605 1.38622C2.62884 1.44403 2.61041 1.50185 2.58951 1.5695C2.5465 1.50677 2.55264 1.48585 2.64605 1.38622ZM2.5637 2.15375C2.5465 2.17466 2.49119 2.19557 2.48259 2.18696C2.45801 2.16236 2.43834 2.123 2.43466 2.08733C2.43097 2.05289 2.44941 2.01599 2.45801 1.97786C2.48996 2 2.51946 2.01722 2.5465 2.03813C2.58828 2.07011 2.59566 2.11439 2.5637 2.15375ZM2.52929 1.07011C2.53298 1.07749 2.53789 1.08487 2.54158 1.09102C2.52929 1.0984 2.51577 1.10578 2.50348 1.11316C2.49979 1.10578 2.49611 1.09963 2.49119 1.09225C2.50471 1.08487 2.517 1.07749 2.52929 1.07011ZM2.4875 0.98155C2.41622 0.97171 2.37198 0.94957 2.39164 0.883149C2.41008 0.821648 2.45432 0.835178 2.51454 0.872079C2.50594 0.908979 2.49734 0.94465 2.4875 0.98155ZM2.44941 0.393604C2.45309 0.397294 2.45678 0.400984 2.4617 0.404674C2.45555 0.409594 2.44941 0.414514 2.44326 0.419434C2.4408 0.414514 2.43589 0.408364 2.43589 0.403444C2.43712 0.398524 2.44572 0.396064 2.44941 0.393604ZM2.30315 0.731857C2.34371 0.742927 2.37444 0.751538 2.40516 0.760148C2.40762 0.771218 2.40885 0.782288 2.41131 0.792128C2.38058 0.809348 2.34986 0.825338 2.30193 0.852399C2.30315 0.799508 2.30315 0.773678 2.30315 0.731857ZM2.32282 1.56458C2.32651 1.57319 2.33019 1.5818 2.33388 1.59041C2.3179 1.59656 2.30193 1.60394 2.28595 1.61009C2.28226 1.60271 2.27857 1.59656 2.27612 1.58918C2.29086 1.58057 2.30684 1.57319 2.32282 1.56458ZM2.24908 2.30504C2.24048 2.3075 2.23064 2.31119 2.22204 2.31365C2.22081 2.30873 2.21835 2.30381 2.21712 2.29889C2.22573 2.2952 2.23433 2.29151 2.24293 2.28905C2.24293 2.29028 2.24662 2.30012 2.24908 2.30504ZM2.23187 1.49816C2.2331 1.49816 2.23433 1.51292 2.2331 1.51292C2.2245 1.51661 2.21467 1.51784 2.20606 1.51907C2.20606 1.51169 2.20483 1.50431 2.20483 1.49692C2.21344 1.49692 2.22327 1.49693 2.23187 1.49816ZM2.28349 2.48708C2.2626 2.51538 2.25031 2.53137 2.2331 2.55474C2.21835 2.52768 2.20975 2.51046 2.19254 2.47724C2.22818 2.48093 2.24908 2.48339 2.28349 2.48708ZM2.12249 2.09102C2.12864 2.09348 2.13355 2.10086 2.14338 2.10947C2.13109 2.11439 2.12126 2.12177 2.11757 2.11931C2.11266 2.11562 2.1102 2.10578 2.10897 2.0984C2.10897 2.09717 2.1188 2.08979 2.12249 2.09102ZM2.12126 2.37392C2.12618 2.37884 2.13109 2.38499 2.13724 2.38991C2.12986 2.39606 2.12249 2.40344 2.11635 2.40959C2.11266 2.40467 2.10774 2.40098 2.10406 2.39606C2.10897 2.38868 2.11512 2.3813 2.12126 2.37392ZM2.07948 1.5941C2.05858 1.60886 2.03769 1.62362 2.0168 1.63838C2.01065 1.62854 2.00328 1.61993 1.99713 1.61009C2.01925 1.59656 2.04015 1.5818 2.06227 1.56827C2.06841 1.57688 2.07456 1.58549 2.07948 1.5941ZM2.02171 1.3321C2.00942 1.32103 1.99836 1.31119 1.98607 1.30012C1.99222 1.29028 1.99713 1.28167 1.99836 1.28167C2.01434 1.28905 2.02909 1.29766 2.04383 1.30504C2.03769 1.31488 2.02909 1.32349 2.02171 1.3321ZM2.03277 0.794588C2.034 0.803198 2.03523 0.813038 2.03646 0.821648C2.01434 0.826568 1.99222 0.830258 1.96887 0.835178C1.96764 0.821648 1.96641 0.808118 1.96518 0.794588C1.98853 0.794588 2.01065 0.794588 2.03277 0.794588ZM1.96026 1.17712C1.95043 1.22017 1.9406 1.26445 1.92708 1.32964C1.88038 1.30996 1.84596 1.29397 1.81032 1.27921C1.80787 1.26937 1.80541 1.2583 1.80295 1.24846C1.84842 1.22017 1.8939 1.19065 1.93937 1.16236C1.94674 1.16605 1.95289 1.17097 1.96026 1.17712ZM1.91356 0.359164C1.91602 0.360394 1.9197 0.361624 1.92216 0.362854C1.9197 0.370234 1.91602 0.377614 1.91356 0.384994C1.90864 0.382534 1.90373 0.380074 1.90004 0.377614C1.90496 0.371464 1.90987 0.365314 1.91356 0.359164ZM1.79189 0.209102C1.81278 0.231242 1.83367 0.253383 1.85334 0.275523C1.84842 0.286593 1.84351 0.296433 1.83859 0.307503C1.8177 0.305043 1.78329 0.308733 1.77837 0.298893C1.76731 0.276753 1.76977 0.246002 1.76731 0.218942C1.77591 0.215252 1.78329 0.211562 1.79189 0.209102ZM1.76485 0.607626C1.76731 0.618696 1.76977 0.629766 1.77222 0.642066C1.75502 0.644526 1.73781 0.648217 1.72184 0.650677C1.71938 0.642066 1.71692 0.634686 1.71446 0.626076C1.73044 0.619926 1.74764 0.613776 1.76485 0.607626ZM1.771 0.756458C1.74887 0.792128 1.72675 0.829028 1.69848 0.875769C1.67513 0.838868 1.6567 0.808118 1.63826 0.778598C1.69234 0.683887 1.71077 0.680197 1.771 0.756458ZM1.60877 0.778598C1.5719 0.783518 1.53503 0.789668 1.47603 0.798278C1.48218 0.739237 1.48218 0.697417 1.49447 0.660517C1.49816 0.649447 1.54977 0.638376 1.55961 0.648216C1.58787 0.675277 1.60508 0.713407 1.6272 0.747847C1.62106 0.757688 1.61491 0.767528 1.60877 0.778598ZM1.60508 0.260763C1.60508 0.261993 1.60631 0.263223 1.60631 0.264453C1.60016 0.266913 1.59525 0.269373 1.5891 0.270603C1.58787 0.268143 1.58787 0.265683 1.58664 0.263223C1.59279 0.263223 1.59893 0.261993 1.60508 0.260763ZM1.56452 0.434194C1.57558 0.437884 1.58664 0.442804 1.59893 0.446494C1.5891 0.474785 1.57927 0.504305 1.56821 0.532595C1.55592 0.527675 1.5424 0.521525 1.53011 0.516605C1.5424 0.489545 1.55346 0.462485 1.56452 0.434194ZM1.47603 0.338253C1.47849 0.335793 1.49078 0.343173 1.49816 0.345633C1.49324 0.356704 1.48832 0.366544 1.48341 0.377614C1.47726 0.373924 1.46989 0.369004 1.46374 0.365314C1.46743 0.356704 1.46989 0.345633 1.47603 0.338253ZM1.46989 0.469865C1.47972 0.482165 1.49078 0.493235 1.50061 0.505535C1.49078 0.511685 1.48218 0.516605 1.47235 0.522755C1.46497 0.510455 1.4576 0.498155 1.45023 0.485855C1.4576 0.479705 1.46374 0.474785 1.46989 0.469865ZM1.39 2.29643C1.40598 2.26322 1.44162 2.23985 1.47358 2.2091C1.51659 2.26691 1.54363 2.30996 1.49816 2.35301C1.48341 2.36777 1.44408 2.37761 1.43179 2.369C1.40967 2.35301 1.38263 2.31119 1.39 2.29643ZM0.517411 1.67651C0.517411 1.67282 0.51864 1.6679 0.51864 1.66421C0.523556 1.66667 0.527243 1.66913 0.532159 1.67159C0.526014 1.67282 0.522327 1.67405 0.517411 1.67651ZM0.50635 0.831488C0.50635 0.827798 0.505121 0.824108 0.505121 0.820418C0.513724 0.817958 0.521098 0.815498 0.529701 0.814268C0.53093 0.820418 0.53093 0.826568 0.532159 0.832718C0.523556 0.831488 0.514953 0.831488 0.50635 0.831488ZM0.621876 2.25461C0.621876 2.24723 0.621876 2.23985 0.621876 2.23247C0.623105 2.23247 0.625563 2.23247 0.626792 2.23247C0.628021 2.23985 0.62925 2.24723 0.630479 2.25338C0.626792 2.25461 0.624334 2.25461 0.621876 2.25461ZM0.884883 2.50923C0.875051 2.50923 0.865219 2.508 0.856616 2.508C0.856616 2.48585 0.856616 2.46371 0.856616 2.44157C0.868906 2.44157 0.881196 2.4428 0.892257 2.4428C0.889799 2.46371 0.887341 2.48708 0.884883 2.50923ZM0.93773 2.31488C0.93773 2.30135 0.93773 2.28659 0.93773 2.27306C0.943875 2.27306 0.948791 2.27183 0.954936 2.27183C0.956165 2.28536 0.957394 2.30012 0.957394 2.31365C0.951249 2.31488 0.945104 2.31488 0.93773 2.31488ZM1.03482 2.54244C1.0975 2.50308 1.0975 2.50308 1.12577 2.58549C1.09013 2.56827 1.06678 2.55597 1.03482 2.54244ZM1.03605 2.33825L1.03851 2.33579C1.03974 2.33456 1.0422 2.33333 1.04342 2.33333C1.0422 2.33456 1.04097 2.33579 1.03974 2.33702L1.03605 2.33825ZM1.08398 2.35178C1.0889 2.35178 1.09258 2.35178 1.0975 2.35301C1.09504 2.35793 1.09258 2.36285 1.09013 2.36654C1.08767 2.36162 1.08521 2.3567 1.08398 2.35178ZM1.15404 0.927429C1.15526 0.928659 1.15526 0.928659 1.15649 0.929889C1.16633 0.927429 1.17739 0.926199 1.18722 0.923739C1.1823 0.931119 1.17862 0.939729 1.1737 0.94711L1.17493 0.94834L1.1737 0.94711C1.17616 0.95572 1.17862 0.96433 1.18722 0.99877C1.15526 0.97294 1.14052 0.96064 1.12577 0.94834C1.1356 0.942189 1.14543 0.934809 1.15526 0.928659L1.15404 0.927429ZM1.26342 0.713407C1.24252 0.717097 1.21917 0.717097 1.19705 0.718327C1.19705 0.704797 1.19705 0.691267 1.19705 0.676507C1.21794 0.675277 1.24007 0.672817 1.26096 0.671587C1.26219 0.686347 1.26587 0.713407 1.26342 0.713407ZM1.27448 1.46371C1.27202 1.47232 1.26833 1.48093 1.26587 1.48831C1.2499 1.48339 1.23392 1.47724 1.21794 1.47232C1.2204 1.46371 1.22409 1.45633 1.22655 1.44772C1.24252 1.45264 1.2585 1.45756 1.27448 1.46371ZM1.20074 1.6064C1.20442 1.61009 1.20811 1.61378 1.2118 1.61747C1.20811 1.62485 1.2032 1.631 1.19951 1.63838C1.19336 1.63346 1.18722 1.62854 1.18107 1.62239C1.18722 1.61624 1.19459 1.61132 1.20074 1.6064ZM1.22409 1.85732C1.24129 1.87823 1.25973 1.89914 1.28677 1.93235C1.24129 1.95818 1.21426 1.97294 1.18845 1.9877C1.12823 1.92497 1.13191 1.9139 1.22409 1.85732ZM1.29291 2.01845C1.29414 2.03075 1.29045 2.04428 1.28923 2.05781C1.28062 2.05658 1.27202 2.05658 1.26342 2.05535C1.26465 2.04059 1.2671 2.02706 1.26833 2.0123C1.27694 2.01476 1.29291 2.01599 1.29291 2.01845ZM1.23761 2.41205C1.25604 2.43911 1.27448 2.46494 1.29291 2.49201C1.27939 2.49939 1.26465 2.50677 1.25113 2.51415C1.23638 2.48585 1.22286 2.45879 1.20811 2.4305C1.21671 2.42435 1.22655 2.4182 1.23761 2.41205ZM1.35805 1.08856L1.36297 1.09102L1.35805 1.09348V1.08856ZM1.34207 0.434194C1.34453 0.435424 1.34699 0.435424 1.34945 0.436654C1.34699 0.442804 1.34453 0.447725 1.34207 0.453875C1.34084 0.453875 1.33839 0.452645 1.33716 0.452645C1.33839 0.446494 1.33961 0.440344 1.34207 0.434194ZM1.22409 2.9139C1.24621 2.88561 1.2585 2.87085 1.27939 2.84625C1.29783 2.88807 1.31135 2.91882 1.33224 2.96556C1.29045 2.94588 1.26465 2.93358 1.22409 2.9139ZM1.1651 0.396064C1.20934 0.405904 1.23269 0.410824 1.2585 0.415744C1.27079 0.489545 1.28185 0.559656 1.29291 0.628536C1.28554 0.635916 1.27816 0.643296 1.27079 0.650677C1.21794 0.629766 1.12823 0.616236 1.12208 0.586716C1.10979 0.530135 1.14789 0.463715 1.1651 0.396064ZM1.10488 1.74785L1.09873 1.74908L1.09996 1.74416L1.10488 1.74785ZM1.05326 0.606396C1.06923 0.613776 1.08398 0.622386 1.09996 0.630996C1.09258 0.639606 1.08521 0.648217 1.07784 0.656827C1.06555 0.645756 1.05326 0.635916 1.04097 0.626076C1.04711 0.615006 1.05203 0.606396 1.05326 0.606396ZM1.03359 1.09102C1.03236 1.09471 1.02991 1.09963 1.02868 1.10332C1.02745 1.0984 1.02745 1.09471 1.02622 1.08979C1.02991 1.09102 1.03236 1.09102 1.03359 1.09102ZM1.04834 1.24231C1.05571 1.25092 1.06432 1.25953 1.07661 1.27429C1.06063 1.28044 1.0508 1.28536 1.04097 1.28905C1.03605 1.27552 1.03113 1.26199 1.02622 1.24846C1.03359 1.24723 1.04097 1.24477 1.04834 1.24231ZM0.98812 0.242312L0.986891 0.248462L0.979517 0.243542L0.98812 0.242312ZM0.986891 1.36039C0.981975 1.36285 0.977059 1.36654 0.973372 1.369C0.973372 1.36408 0.973372 1.35916 0.972143 1.35424C0.977059 1.35547 0.981975 1.35793 0.986891 1.36039ZM0.958623 1.88192C0.956165 1.88315 0.954936 1.88438 0.952478 1.88561C0.952478 1.88192 0.952478 1.877 0.951249 1.87085C0.954937 1.87577 0.957394 1.87946 0.958623 1.88192ZM0.908234 0.455105C0.907005 0.463715 0.907005 0.472325 0.905776 0.482165C0.90086 0.482165 0.897173 0.482165 0.892257 0.482165C0.891028 0.473555 0.889799 0.463715 0.88857 0.455105C0.894715 0.455105 0.902089 0.455105 0.908234 0.455105ZM0.87628 0.720787C0.878738 0.742927 0.879967 0.763838 0.882425 0.787208C0.866448 0.787208 0.855387 0.788438 0.855387 0.787208C0.848013 0.766298 0.841868 0.744157 0.836952 0.723247C0.849242 0.722017 0.862761 0.722017 0.87628 0.720787ZM0.889799 1.1476C0.859074 1.13161 0.835723 1.11808 0.797624 1.0984C0.889799 1.05166 0.889799 1.05166 0.889799 1.1476ZM0.878738 1.42066L0.875051 1.42681L0.872593 1.42066H0.878738ZM1.0127 1.96433C1.00655 2.02091 1.00041 2.07995 0.994265 2.1353C0.957394 2.15252 0.931585 2.16359 0.884883 2.18573C0.852929 2.14145 0.817288 2.09348 0.786563 2.05166C0.845555 1.95818 0.910692 1.91636 1.0127 1.96433ZM0.680869 1.93235C0.680869 1.93727 0.680869 1.94219 0.680869 1.94711C0.675952 1.94465 0.671036 1.94219 0.66612 1.93973C0.671036 1.93727 0.675952 1.93481 0.680869 1.93235ZM0.632937 1.70603C0.634166 1.71095 0.635395 1.7171 0.636624 1.72202C0.625563 1.72571 0.614502 1.7294 0.603441 1.73309C0.602212 1.72448 0.599754 1.7171 0.598525 1.70849C0.609586 1.70726 0.620647 1.70726 0.632937 1.70603ZM0.593609 1.82411C0.594838 1.82411 0.594838 1.8278 0.596067 1.82903C0.593609 1.83026 0.591151 1.83026 0.588693 1.83149C0.587464 1.82903 0.587464 1.8278 0.586235 1.82534C0.589922 1.82534 0.59238 1.82411 0.593609 1.82411ZM0.544449 0.537515C0.585006 0.600246 0.578861 0.637146 0.508808 0.655597C0.458419 0.601476 0.475625 0.568266 0.544449 0.537515ZM0.0626792 1.80689C0.0602212 1.80812 0.0589922 1.80812 0.0589922 1.80812C0.0602212 1.80812 0.0614502 1.80689 0.0626792 1.80689C0.0589922 1.80566 0.0540762 1.80566 0.0626792 1.80689ZM0.0835723 1.53875V1.53137L0.0897173 1.53506L0.0835723 1.53875ZM0.119213 1.83272C0.119213 1.82903 0.119213 1.82657 0.119213 1.82288C0.125358 1.82288 0.132732 1.82411 0.138878 1.82411C0.138878 1.82534 0.138878 1.8278 0.138878 1.82903C0.132732 1.83026 0.126587 1.83149 0.119213 1.83272ZM0.181893 1.60148C0.180664 1.59902 0.176977 1.59779 0.176977 1.59533C0.176977 1.5941 0.180664 1.59164 0.181893 1.59041C0.183122 1.59287 0.186809 1.5941 0.186809 1.59656C0.186809 1.59779 0.183122 1.59902 0.181893 1.60148ZM0.324457 1.00738C0.324457 1.00984 0.323228 1.0123 0.323228 1.01476C0.32077 1.01476 0.318312 1.01599 0.317083 1.01476C0.315854 1.01353 0.314625 1.01107 0.314625 1.00861C0.317083 1.00861 0.32077 1.00738 0.324457 1.00738ZM0.276526 0.934809C0.278984 0.942189 0.282671 0.948339 0.285129 0.95572C0.277755 0.96433 0.269152 0.97294 0.256862 0.9877C0.249488 0.97294 0.243343 0.9631 0.238427 0.95326C0.250717 0.94711 0.263007 0.940959 0.276526 0.934809ZM0.36993 2.35055L0.365014 2.34686L0.372388 2.34563L0.36993 2.35055ZM0.371159 1.83149C0.325686 1.85486 0.280213 1.87946 0.23474 1.90283C0.224908 1.89668 0.213847 1.89176 0.204015 1.88561C0.202786 1.8401 0.194183 1.7909 0.205244 1.74785C0.21016 1.7294 0.263007 1.70234 0.281442 1.71095C0.317083 1.72571 0.344121 1.76261 0.374846 1.78967C0.373617 1.80443 0.372388 1.81796 0.371159 1.83149ZM0.410488 1.62239C0.409259 1.61747 0.404342 1.61132 0.4068 1.60763C0.408029 1.60517 0.417862 1.60148 0.42032 1.60271C0.424007 1.60517 0.425236 1.61132 0.426465 1.61624C0.421549 1.6187 0.416633 1.61993 0.410488 1.62239Z" fill="#F0DBC7"/>
</svg>
