<?xml version="1.0" encoding="utf-8"?>
<!-- Generator: Adobe Illustrator 26.2.1, SVG Export Plug-In . SVG Version: 6.00 Build 0)  -->
<svg version="1.1" id="Ebene_1" xmlns="http://www.w3.org/2000/svg" xmlns:xlink="http://www.w3.org/1999/xlink" x="0px" y="0px"
	 viewBox="0 0 48 48" style="enable-background:new 0 0 48 48;" xml:space="preserve">
<path d="M42.4,18.6c-0.8-2.5-0.9-5.5-0.8-7.9C41.7,8.2,39.8,6,37.2,6H10.8c-2.6,0-4.5,2.3-4.4,4.7c0.1,2.4,0,5.4-0.8,7.9
	c-0.8,2.5-2.1,4.1-4.2,4.3v2.3c2.1,0.2,3.4,1.8,4.2,4.3c0.8,2.5,0.9,5.5,0.8,7.9C6.3,39.7,8.2,42,10.8,42h26.4
	c2.6,0,4.5-2.3,4.4-4.7c-0.1-2.4,0-5.4,0.8-7.9c0.8-2.5,2.1-4.1,4.2-4.3v-2.3C44.5,22.6,43.2,21,42.4,18.6z M25,34h-8.2V14H25
	c3.6,0,6,2,6,5c0,2.1-1.6,4-3.7,4.4v0.1c2.8,0.3,4.7,2.2,4.7,4.9C32,31.9,29.4,34,25,34z"/>
<path d="M24.2,16.5H20h0v6h3.6c2.8,0,4.3-1.1,4.3-3.1C27.8,17.6,26.5,16.5,24.2,16.5z"/>
<path d="M24.2,24.9H20v6.6h4.4c2.9,0,4.4-1.2,4.4-3.3C28.8,26,27.2,24.9,24.2,24.9z"/>
</svg>
