<?xml version="1.0" encoding="utf-8"?>
<!-- Generator: Adobe Illustrator 26.2.1, SVG Export Plug-In . SVG Version: 6.00 Build 0)  -->
<svg version="1.1" id="Layer_1" xmlns="http://www.w3.org/2000/svg" xmlns:xlink="http://www.w3.org/1999/xlink" x="0px" y="0px"
	 viewBox="0 0 173.3 165.9" style="enable-background:new 0 0 173.3 165.9;" xml:space="preserve">
<path d="M155.1,0H18.8C8.2,0,0,9.6,0,21.5v122.9c0,11.9,7.5,21.5,17.1,21.5h139.7c10.3,0,16.5-9.6,16.5-21.5V21.5
	C173.3,9.6,166.4,0,155.1,0z M38,95.8c-0.1-20.1,13.2-33.1,33.7-33.1c3.2,0,5.6,0.2,8.5,1V33.8h19.6v90.8c-10,1.9-17.4,2.7-25.5,2.7
	C50.5,127.3,38,116.5,38,95.8z M131,109.5c0,15.7-1.2,23.2-4.6,29.7c-3.2,6.2-7.4,10.2-16,14.5l-18.2-8.6
	c8.6-4.1,12.9-7.6,15.5-13.1c2.8-5.6,3.7-12.1,3.7-29.2V64.1H131V109.5z M131.1,54h-19.6V33.9h19.6V54z"/>
<path d="M57.9,95.4c0-10.8,5.8-16.8,15.7-16.8c2.5,0,4.4,0.2,6.7,1c0,0,0,31.5-0.1,31.5c-2.8,0.3-4.6,0.5-6.7,0.5
	C63.4,111.5,57.9,105.8,57.9,95.4z"/>
</svg>
