<svg xmlns="http://www.w3.org/2000/svg" xmlns:xlink="http://www.w3.org/1999/xlink" version="1.0" x="0px" y="0px" viewBox="0 0 26 26.006" style="enable-background:new 0 0 26 26.006;" xml:space="preserve"><path d="M20,7h5c0.551,0,1-0.449,1-1V1c0-0.551-0.449-1-1-1h-5c-0.551,0-1,0.449-1,1v2h-7c-0.552,0-1,0.448-1,1v8H7V9  c0-0.551-0.449-1-1-1H1C0.449,8,0,8.449,0,9v8c0,0.551,0.449,1,1,1h5c0.551,0,1-0.449,1-1v-3h4v8c0,0.553,0.448,1,1,1h7v2  c0,0.551,0.449,1,1,1h5c0.551,0,1-0.449,1-1v-5c0-0.551-0.449-1-1-1h-5c-0.551,0-1,0.449-1,1v1h-6v-7h6v2c0,0.551,0.449,1,1,1h5  c0.551,0,1-0.449,1-1v-6c0-0.551-0.449-1-1-1h-5c-0.551,0-1,0.449-1,1v2h-6V5h6v1C19,6.551,19.449,7,20,7z"></path></svg>